<svg xmlns="http://www.w3.org/2000/svg" xmlns:xlink="http://www.w3.org/1999/xlink" width="500" zoomAndPan="magnify" viewBox="0 0 375 374.999991" height="500" preserveAspectRatio="xMidYMid meet" version="1.0"><defs><g/><clipPath id="c0dd62731f"><path d="M 217.359375 187 L 247 187 L 247 221.183594 L 217.359375 221.183594 Z M 217.359375 187 " clip-rule="nonzero"/></clipPath><clipPath id="4cedeb2c0c"><path d="M 240.855469 209.113281 C 240.796875 215.171875 231.359375 220.96875 223.28125 221.113281 C 222.660156 221.125 222.101562 221.101562 221.613281 221.050781 C 217.398438 220.609375 217.535156 218.964844 217.96875 218.0625 C 218.542969 216.871094 220.160156 216.050781 221.839844 216.0625 C 222.8125 216.070312 223.5625 215.921875 224.144531 215.699219 C 224.554688 215.542969 224.753906 215.113281 224.542969 214.875 C 223.265625 213.4375 222.964844 211.554688 223.667969 209.652344 C 224.371094 207.753906 225.992188 206.058594 228.078125 204.933594 C 230.050781 203.867188 232.277344 203.382812 234.429688 203.519531 C 238.117188 203.761719 240.886719 206.039062 240.855469 209.113281 Z M 241.28125 187.542969 C 234.160156 186.898438 229.777344 193.785156 230.886719 198.1875 C 231.5 200.621094 233.800781 201.917969 236.171875 201.917969 C 238.476562 201.917969 241.433594 200.699219 243.515625 198.46875 C 247.109375 194.613281 247.820312 188.132812 241.28125 187.542969 Z M 241.28125 187.542969 " clip-rule="nonzero"/></clipPath></defs><rect x="-37.5" width="450" fill="#ffffff" y="-37.499999" height="449.999989" fill-opacity="1"/><rect x="-37.5" width="450" fill="#405336" y="-37.499999" height="449.999989" fill-opacity="1"/><g fill="#ecd8cf" fill-opacity="1"><g transform="translate(119.620338, 213.589916)"><g><path d="M 83.601562 -0.4375 C 77.171875 -0.546875 74.554688 -4.578125 69.539062 -16.457031 L 42.945312 -79.242188 C 42.835938 -79.351562 42.617188 -79.242188 42.617188 -79.242188 C 41.308594 -76.734375 37.058594 -74.992188 34.117188 -74.117188 C 33.789062 -74.007812 33.898438 -73.898438 34.007812 -73.683594 C 35.53125 -70.738281 37.058594 -67.90625 38.476562 -65.070312 L 15.804688 -17.222656 C 11.445312 -8.066406 6.429688 -0.546875 0.871094 -0.4375 C 0.4375 -0.4375 0.4375 0.328125 0.871094 0.328125 C 5.121094 0.328125 7.847656 0 9.589844 0 C 12.535156 0 17.332031 0.328125 24.523438 0.328125 C 25.179688 0.328125 25.179688 -0.546875 24.523438 -0.546875 C 15.042969 -0.546875 12.863281 -8.175781 17.332031 -17.65625 L 19.402344 -22.015625 L 39.019531 -22.015625 C 46.652344 -22.015625 50.03125 -22.015625 57.222656 -22.015625 L 59.511719 -16.351562 C 64.527344 -4.578125 63.4375 -0.546875 54.714844 -0.4375 C 54.0625 -0.4375 54.0625 0.328125 54.714844 0.328125 C 61.910156 0.328125 63.65625 0 66.488281 0 L 74.882812 0 C 76.953125 0 78.261719 0.328125 83.601562 0.328125 C 84.144531 0.328125 84.144531 -0.4375 83.601562 -0.4375 Z M 39.019531 -23.324219 L 20.054688 -23.324219 L 39.128906 -63.761719 C 46.433594 -48.832031 51.335938 -36.515625 56.679688 -23.324219 Z M 39.019531 -23.324219 "/></g></g></g><g fill="#ecd8cf" fill-opacity="1"><g transform="translate(183.7474, 213.589916)"><g><path d="M 39.019531 -31.828125 C 60.167969 -31.828125 72.59375 -40.109375 72.59375 -53.953125 C 72.59375 -67.6875 59.511719 -76.296875 37.277344 -76.296875 L 15.367188 -76.296875 C 12.535156 -76.296875 11.007812 -76.625 3.816406 -76.625 C 3.050781 -76.625 3.160156 -75.863281 3.816406 -75.863281 C 12.535156 -75.753906 14.386719 -74.445312 14.386719 -59.402344 L 14.386719 -16.894531 C 14.386719 -1.851562 12.535156 -0.546875 3.816406 -0.4375 C 3.160156 -0.4375 3.050781 0.328125 3.816406 0.328125 C 11.007812 0.328125 12.535156 0 15.367188 0 L 22.5625 0 C 26.59375 0 28.773438 0.328125 39.238281 0.328125 C 40.328125 0.328125 40.21875 -0.546875 39.238281 -0.546875 C 26.59375 -0.546875 23.871094 -2.070312 23.871094 -18.53125 L 23.871094 -31.828125 Z M 24.851562 -75.097656 L 35.425781 -75.097656 C 51.992188 -75.097656 61.691406 -66.488281 61.691406 -54.0625 C 61.691406 -41.199219 51.992188 -33.027344 35.207031 -33.027344 L 23.871094 -33.027344 L 23.871094 -62.566406 C 23.871094 -71.828125 24.523438 -73.792969 24.851562 -75.097656 Z M 24.851562 -75.097656 "/></g></g></g><g clip-path="url(#c0dd62731f)"><g clip-path="url(#4cedeb2c0c)"><path fill="#ecd8cf" d="M 217.761719 187.5 L 246.21875 187.5 L 246.21875 221.117188 L 217.761719 221.117188 Z M 217.761719 187.5 " fill-opacity="1" fill-rule="nonzero"/></g></g><g fill="#ecd8cf" fill-opacity="1"><g transform="translate(120.316403, 250.335144)"><g><path d="M 9.3125 -6.4375 C 8.769531 -7.851562 7.945312 -10.257812 6.84375 -13.65625 C 6.695312 -13.289062 6.328125 -12.265625 5.734375 -10.578125 C 5.148438 -8.898438 4.628906 -7.519531 4.171875 -6.4375 C 5.421875 -6.40625 6.472656 -6.390625 7.328125 -6.390625 C 8.171875 -6.390625 8.832031 -6.40625 9.3125 -6.4375 Z M 9.828125 -5.015625 C 8.023438 -4.984375 6.929688 -4.96875 6.546875 -4.96875 C 6.171875 -4.96875 5.179688 -4.984375 3.578125 -5.015625 C 2.503906 -2.316406 1.832031 -0.476562 1.5625 0.5 C 1.039062 0.394531 0.671875 0.269531 0.453125 0.125 C 0.234375 -0.0195312 0.125 -0.203125 0.125 -0.421875 C 0.125 -0.628906 0.46875 -1.535156 1.15625 -3.140625 C 3.457031 -8.566406 5.050781 -12.800781 5.9375 -15.84375 C 6.238281 -15.894531 6.582031 -15.921875 6.96875 -15.921875 C 7.34375 -15.921875 7.609375 -15.847656 7.765625 -15.703125 C 7.929688 -15.566406 8.101562 -15.210938 8.28125 -14.640625 C 9.289062 -11.398438 10.300781 -8.453125 11.3125 -5.796875 C 12.332031 -3.148438 13.113281 -1.296875 13.65625 -0.234375 C 13.207031 0.078125 12.820312 0.234375 12.5 0.234375 C 11.988281 0.234375 11.644531 0.0195312 11.46875 -0.40625 C 11.164062 -1.1875 10.617188 -2.722656 9.828125 -5.015625 Z M 9.828125 -5.015625 "/></g></g><g transform="translate(133.535152, 250.335144)"><g><path d="M 9.03125 -11.40625 C 9.59375 -11.40625 9.875 -11.054688 9.875 -10.359375 C 9.875 -9.660156 9.585938 -8.410156 9.015625 -6.609375 C 8.441406 -4.816406 7.765625 -3.085938 6.984375 -1.421875 C 5.578125 1.578125 4.25 3.851562 3 5.40625 C 2.675781 5.820312 2.363281 6.03125 2.0625 6.03125 C 1.613281 6.03125 1.171875 5.707031 0.734375 5.0625 C 1.222656 4.757812 1.867188 4.140625 2.671875 3.203125 C 3.472656 2.273438 4.171875 1.335938 4.765625 0.390625 C 4.203125 -1.472656 3.4375 -3.59375 2.46875 -5.96875 C 1.507812 -8.34375 0.6875 -9.859375 0 -10.515625 C 0.5625 -11.023438 1.023438 -11.28125 1.390625 -11.28125 C 1.742188 -11.28125 2.050781 -11.023438 2.3125 -10.515625 C 2.695312 -9.742188 3.265625 -8.398438 4.015625 -6.484375 C 4.765625 -4.578125 5.320312 -2.988281 5.6875 -1.71875 C 6.375 -3.21875 6.976562 -4.820312 7.5 -6.53125 C 8.019531 -8.238281 8.28125 -9.585938 8.28125 -10.578125 C 8.28125 -10.660156 8.265625 -10.894531 8.234375 -11.28125 C 8.472656 -11.363281 8.738281 -11.40625 9.03125 -11.40625 Z M 9.03125 -11.40625 "/></g></g><g transform="translate(144.117183, 250.335144)"><g><path d="M 10.625 -10.328125 L 10.53125 -4.875 C 10.53125 -2.84375 10.6875 -1.257812 11 -0.125 C 10.675781 0.0078125 10.378906 0.078125 10.109375 0.078125 C 9.367188 0.078125 9 -0.320312 9 -1.125 C 7.851562 -0.21875 6.582031 0.234375 5.1875 0.234375 C 2.914062 0.234375 1.78125 -0.890625 1.78125 -3.140625 L 1.859375 -7.421875 C 1.859375 -8.867188 1.71875 -10.078125 1.4375 -11.046875 C 1.757812 -11.171875 2.101562 -11.234375 2.46875 -11.234375 C 2.820312 -11.234375 3.085938 -11.140625 3.265625 -10.953125 C 3.453125 -10.765625 3.546875 -10.453125 3.546875 -10.015625 L 3.40625 -3.796875 C 3.40625 -2.929688 3.613281 -2.265625 4.03125 -1.796875 C 4.457031 -1.335938 5.007812 -1.109375 5.6875 -1.109375 C 6.84375 -1.109375 7.925781 -1.546875 8.9375 -2.421875 C 8.914062 -3.109375 8.90625 -4.390625 8.90625 -6.265625 C 8.90625 -8.140625 8.847656 -9.769531 8.734375 -11.15625 C 8.992188 -11.207031 9.265625 -11.234375 9.546875 -11.234375 C 10.265625 -11.234375 10.625 -10.929688 10.625 -10.328125 Z M 10.625 -10.328125 "/></g></g><g transform="translate(156.550776, 250.335144)"><g><path d="M 7.4375 -8.5 C 7.257812 -8.957031 6.898438 -9.332031 6.359375 -9.625 C 5.816406 -9.914062 5.265625 -10.0625 4.703125 -10.0625 C 4.128906 -10.0625 3.640625 -9.910156 3.234375 -9.609375 C 2.835938 -9.316406 2.640625 -8.914062 2.640625 -8.40625 C 2.640625 -7.882812 2.851562 -7.488281 3.28125 -7.21875 C 3.707031 -6.957031 4.222656 -6.753906 4.828125 -6.609375 C 5.429688 -6.460938 6.035156 -6.296875 6.640625 -6.109375 C 7.253906 -5.929688 7.773438 -5.597656 8.203125 -5.109375 C 8.628906 -4.628906 8.84375 -4.003906 8.84375 -3.234375 C 8.84375 -2.097656 8.429688 -1.234375 7.609375 -0.640625 C 6.796875 -0.0546875 5.863281 0.234375 4.8125 0.234375 C 3.757812 0.234375 2.851562 0.0507812 2.09375 -0.3125 C 1.34375 -0.6875 0.96875 -1.140625 0.96875 -1.671875 C 0.96875 -2.140625 1.328125 -2.476562 2.046875 -2.6875 C 2.222656 -2.175781 2.601562 -1.785156 3.1875 -1.515625 C 3.769531 -1.242188 4.40625 -1.109375 5.09375 -1.109375 C 5.78125 -1.109375 6.332031 -1.257812 6.75 -1.5625 C 7.175781 -1.863281 7.390625 -2.296875 7.390625 -2.859375 C 7.390625 -3.410156 7.175781 -3.816406 6.75 -4.078125 C 6.332031 -4.335938 5.816406 -4.535156 5.203125 -4.671875 C 4.597656 -4.804688 3.988281 -4.960938 3.375 -5.140625 C 2.769531 -5.328125 2.253906 -5.675781 1.828125 -6.1875 C 1.410156 -6.707031 1.203125 -7.410156 1.203125 -8.296875 C 1.203125 -9.179688 1.613281 -9.921875 2.4375 -10.515625 C 3.257812 -11.109375 4.117188 -11.40625 5.015625 -11.40625 C 5.910156 -11.40625 6.71875 -11.234375 7.4375 -10.890625 C 8.15625 -10.554688 8.515625 -10.125 8.515625 -9.59375 C 8.515625 -9.039062 8.15625 -8.675781 7.4375 -8.5 Z M 7.4375 -8.5 "/></g></g><g transform="translate(166.371088, 250.335144)"><g><path d="M 8.5625 -1.15625 L 8.703125 -7.609375 C 8.703125 -8.328125 8.488281 -8.914062 8.0625 -9.375 C 7.632812 -9.832031 7.160156 -10.0625 6.640625 -10.0625 C 6.117188 -10.0625 5.53125 -9.910156 4.875 -9.609375 C 4.21875 -9.316406 3.679688 -8.9375 3.265625 -8.46875 C 3.203125 -6.195312 3.171875 -4.539062 3.171875 -3.5 C 3.171875 -2.46875 3.226562 -1.3125 3.34375 -0.03125 C 3.082031 0.0195312 2.804688 0.046875 2.515625 0.046875 C 1.796875 0.046875 1.4375 -0.257812 1.4375 -0.875 C 1.4375 -1 1.453125 -1.703125 1.484375 -2.984375 C 1.609375 -6.785156 1.671875 -9.945312 1.671875 -12.46875 C 1.671875 -14.988281 1.609375 -16.753906 1.484375 -17.765625 C 1.742188 -17.816406 2.035156 -17.84375 2.359375 -17.84375 C 3.078125 -17.84375 3.4375 -17.546875 3.4375 -16.953125 C 3.4375 -16.367188 3.378906 -14.023438 3.265625 -9.921875 C 4.421875 -10.910156 5.707031 -11.40625 7.125 -11.40625 C 9.289062 -11.40625 10.375 -10.15625 10.375 -7.65625 L 10.28125 -3.734375 C 10.28125 -2.265625 10.410156 -1.0625 10.671875 -0.125 C 10.359375 0.0078125 10.019531 0.078125 9.65625 0.078125 C 9.300781 0.078125 9.03125 -0.015625 8.84375 -0.203125 C 8.65625 -0.390625 8.5625 -0.707031 8.5625 -1.15625 Z M 8.5625 -1.15625 "/></g></g><g transform="translate(178.488274, 250.335144)"><g><path d="M 1.703125 -1.296875 L 1.765625 -5.546875 C 1.765625 -7.835938 1.703125 -9.707031 1.578125 -11.15625 C 1.835938 -11.207031 2.113281 -11.234375 2.40625 -11.234375 C 3.15625 -11.234375 3.53125 -10.929688 3.53125 -10.328125 C 3.53125 -10.242188 3.515625 -9.921875 3.484375 -9.359375 C 3.390625 -7.648438 3.34375 -5.9375 3.34375 -4.21875 C 3.34375 -2.488281 3.492188 -1.125 3.796875 -0.125 C 3.503906 0.0078125 3.164062 0.078125 2.78125 0.078125 C 2.382812 0.078125 2.101562 -0.0234375 1.9375 -0.234375 C 1.78125 -0.441406 1.703125 -0.796875 1.703125 -1.296875 Z M 3.734375 -13.796875 C 3.734375 -13.429688 3.609375 -13.125 3.359375 -12.875 C 3.109375 -12.625 2.816406 -12.5 2.484375 -12.5 C 2.160156 -12.5 1.878906 -12.617188 1.640625 -12.859375 C 1.398438 -13.097656 1.28125 -13.40625 1.28125 -13.78125 C 1.28125 -14.144531 1.40625 -14.453125 1.65625 -14.703125 C 1.914062 -14.953125 2.207031 -15.078125 2.53125 -15.078125 C 2.863281 -15.078125 3.144531 -14.953125 3.375 -14.703125 C 3.613281 -14.453125 3.734375 -14.148438 3.734375 -13.796875 Z M 3.734375 -13.796875 "/></g></g><g transform="translate(183.597649, 250.335144)"><g/></g><g transform="translate(189.550774, 250.335144)"><g><path d="M 3.6875 -7.90625 C 4.40625 -7.5 5.257812 -7.296875 6.25 -7.296875 C 7.226562 -7.296875 8.023438 -7.609375 8.640625 -8.234375 C 9.265625 -8.867188 9.578125 -9.726562 9.578125 -10.8125 C 9.578125 -12.28125 9.234375 -13.289062 8.546875 -13.84375 C 7.859375 -14.40625 6.785156 -14.6875 5.328125 -14.6875 C 4.910156 -14.6875 4.332031 -14.65625 3.59375 -14.59375 C 3.65625 -13.664062 3.6875 -12.03125 3.6875 -9.6875 Z M 1.859375 -1.296875 L 1.90625 -5.546875 L 1.90625 -10.34375 C 1.90625 -12.550781 1.796875 -14.394531 1.578125 -15.875 C 2.765625 -16.0625 3.957031 -16.15625 5.15625 -16.15625 C 9.445312 -16.15625 11.59375 -14.425781 11.59375 -10.96875 C 11.59375 -9.300781 11.09375 -8.03125 10.09375 -7.15625 C 9.09375 -6.28125 7.972656 -5.84375 6.734375 -5.84375 C 5.492188 -5.84375 4.476562 -6.09375 3.6875 -6.59375 L 3.6875 -4.875 C 3.6875 -2.707031 3.84375 -1.125 4.15625 -0.125 C 3.863281 0.0078125 3.488281 0.078125 3.03125 0.078125 C 2.5625 0.078125 2.25 -0.0234375 2.09375 -0.234375 C 1.9375 -0.441406 1.859375 -0.796875 1.859375 -1.296875 Z M 1.859375 -1.296875 "/></g></g><g transform="translate(201.644523, 250.335144)"><g><path d="M 11.515625 -5.5625 C 11.515625 -3.8125 11.035156 -2.40625 10.078125 -1.34375 C 9.117188 -0.289062 7.863281 0.234375 6.3125 0.234375 C 4.75 0.234375 3.484375 -0.289062 2.515625 -1.34375 C 1.554688 -2.40625 1.078125 -3.8125 1.078125 -5.5625 C 1.078125 -7.320312 1.554688 -8.734375 2.515625 -9.796875 C 3.484375 -10.867188 4.75 -11.40625 6.3125 -11.40625 C 7.863281 -11.40625 9.117188 -10.867188 10.078125 -9.796875 C 11.035156 -8.734375 11.515625 -7.320312 11.515625 -5.5625 Z M 6.3125 -1.109375 C 7.414062 -1.109375 8.28125 -1.484375 8.90625 -2.234375 C 9.53125 -2.984375 9.84375 -4.015625 9.84375 -5.328125 C 9.84375 -6.640625 9.519531 -7.753906 8.875 -8.671875 C 8.238281 -9.597656 7.367188 -10.0625 6.265625 -10.0625 C 5.160156 -10.0625 4.300781 -9.679688 3.6875 -8.921875 C 3.070312 -8.160156 2.765625 -7.125 2.765625 -5.8125 C 2.765625 -4.5 3.070312 -3.382812 3.6875 -2.46875 C 4.3125 -1.5625 5.1875 -1.109375 6.3125 -1.109375 Z M 6.3125 -1.109375 "/></g></g><g transform="translate(214.242178, 250.335144)"><g><path d="M 1.5625 -1.296875 L 1.609375 -5.546875 C 1.609375 -7.835938 1.550781 -9.707031 1.4375 -11.15625 C 1.695312 -11.207031 1.972656 -11.234375 2.265625 -11.234375 C 2.953125 -11.234375 3.296875 -10.929688 3.296875 -10.328125 C 3.296875 -10.296875 3.289062 -10.1875 3.28125 -10 C 3.269531 -9.8125 3.265625 -9.640625 3.265625 -9.484375 C 3.578125 -9.972656 4.003906 -10.414062 4.546875 -10.8125 C 5.085938 -11.207031 5.582031 -11.40625 6.03125 -11.40625 C 6.894531 -11.40625 7.328125 -11.09375 7.328125 -10.46875 C 7.328125 -10.164062 7.164062 -9.804688 6.84375 -9.390625 C 6.488281 -9.691406 6.097656 -9.84375 5.671875 -9.84375 C 5.234375 -9.84375 4.789062 -9.664062 4.34375 -9.3125 C 3.894531 -8.96875 3.519531 -8.503906 3.21875 -7.921875 C 3.195312 -7.378906 3.1875 -6.195312 3.1875 -4.375 C 3.1875 -2.539062 3.335938 -1.125 3.640625 -0.125 C 3.359375 0.0078125 3.019531 0.078125 2.625 0.078125 C 2.238281 0.078125 1.960938 -0.0234375 1.796875 -0.234375 C 1.640625 -0.441406 1.5625 -0.796875 1.5625 -1.296875 Z M 1.5625 -1.296875 "/></g></g><g transform="translate(221.800772, 250.335144)"><g><path d="M 14.9375 -11.40625 C 15.53125 -11.40625 15.828125 -11.109375 15.828125 -10.515625 C 15.828125 -9.921875 15.6875 -9.078125 15.40625 -7.984375 C 15.125 -6.898438 14.78125 -5.832031 14.375 -4.78125 C 13.351562 -2.25 12.429688 -0.695312 11.609375 -0.125 C 11.421875 0.0078125 11.210938 0.078125 10.984375 0.078125 C 10.742188 0.078125 10.507812 0.0507812 10.28125 0 C 9.851562 -2.113281 9.21875 -4.40625 8.375 -6.875 C 7.5 -4.082031 6.578125 -2.082031 5.609375 -0.875 C 5.304688 -0.5 5.0625 -0.242188 4.875 -0.109375 C 4.695312 0.015625 4.492188 0.078125 4.265625 0.078125 C 4.035156 0.078125 3.796875 0.0507812 3.546875 0 C 3.203125 -1.84375 2.644531 -3.929688 1.875 -6.265625 C 1.101562 -8.609375 0.453125 -10.0625 -0.078125 -10.625 C 0.398438 -11.0625 0.84375 -11.28125 1.25 -11.28125 C 1.65625 -11.28125 1.972656 -11 2.203125 -10.4375 C 2.492188 -9.71875 2.925781 -8.410156 3.5 -6.515625 C 4.082031 -4.628906 4.519531 -3.03125 4.8125 -1.71875 C 5.394531 -2.570312 5.988281 -3.914062 6.59375 -5.75 C 7.207031 -7.59375 7.515625 -9.179688 7.515625 -10.515625 C 7.515625 -10.785156 7.488281 -11.039062 7.4375 -11.28125 C 7.6875 -11.363281 7.941406 -11.40625 8.203125 -11.40625 C 8.796875 -11.40625 9.09375 -11.082031 9.09375 -10.4375 C 9.09375 -9.800781 9.085938 -9.425781 9.078125 -9.3125 C 9.441406 -8.707031 9.863281 -7.644531 10.34375 -6.125 C 10.820312 -4.601562 11.210938 -3.132812 11.515625 -1.71875 C 12.109375 -2.570312 12.707031 -3.914062 13.3125 -5.75 C 13.925781 -7.59375 14.234375 -9.179688 14.234375 -10.515625 C 14.234375 -10.785156 14.207031 -11.039062 14.15625 -11.28125 C 14.394531 -11.363281 14.65625 -11.40625 14.9375 -11.40625 Z M 14.9375 -11.40625 "/></g></g><g transform="translate(238.429677, 250.335144)"><g><path d="M 9.40625 -7.484375 L 9.359375 -4.25 C 9.359375 -2.40625 9.515625 -1.03125 9.828125 -0.125 C 9.566406 0.0078125 9.253906 0.078125 8.890625 0.078125 C 8.535156 0.078125 8.285156 -0.00390625 8.140625 -0.171875 C 7.992188 -0.347656 7.898438 -0.617188 7.859375 -0.984375 C 6.859375 -0.171875 5.832031 0.234375 4.78125 0.234375 C 2.3125 0.234375 1.078125 -0.890625 1.078125 -3.140625 C 1.078125 -3.960938 1.269531 -4.5625 1.65625 -4.9375 C 2.039062 -5.320312 2.566406 -5.613281 3.234375 -5.8125 C 4.441406 -6.132812 5.96875 -6.347656 7.8125 -6.453125 C 7.8125 -7.816406 7.640625 -8.757812 7.296875 -9.28125 C 6.960938 -9.800781 6.25 -10.0625 5.15625 -10.0625 C 4.707031 -10.0625 4.242188 -9.914062 3.765625 -9.625 C 3.285156 -9.332031 2.925781 -8.914062 2.6875 -8.375 C 1.945312 -8.519531 1.578125 -8.84375 1.578125 -9.34375 C 1.578125 -9.96875 1.960938 -10.46875 2.734375 -10.84375 C 3.503906 -11.21875 4.492188 -11.40625 5.703125 -11.40625 C 6.890625 -11.40625 7.800781 -11.117188 8.4375 -10.546875 C 9.082031 -9.972656 9.40625 -8.953125 9.40625 -7.484375 Z M 7.78125 -5.234375 C 7.3125 -5.179688 6.960938 -5.140625 6.734375 -5.109375 C 6.503906 -5.078125 6.191406 -5.035156 5.796875 -4.984375 C 5.398438 -4.941406 5.101562 -4.894531 4.90625 -4.84375 C 4.71875 -4.800781 4.484375 -4.738281 4.203125 -4.65625 C 3.929688 -4.570312 3.726562 -4.484375 3.59375 -4.390625 C 3.457031 -4.296875 3.316406 -4.191406 3.171875 -4.078125 C 2.898438 -3.847656 2.765625 -3.535156 2.765625 -3.140625 C 2.765625 -2.421875 2.972656 -1.890625 3.390625 -1.546875 C 3.804688 -1.203125 4.332031 -1.03125 4.96875 -1.03125 C 6.050781 -1.03125 6.96875 -1.390625 7.71875 -2.109375 C 7.707031 -2.335938 7.703125 -2.75 7.703125 -3.34375 C 7.703125 -3.925781 7.726562 -4.554688 7.78125 -5.234375 Z M 7.78125 -5.234375 "/></g></g><g transform="translate(249.562488, 250.335144)"><g><path d="M 1.578125 -1.171875 L 1.625 -8.046875 L 1.625 -10.828125 C 1.625 -14.597656 1.5625 -16.910156 1.4375 -17.765625 C 1.695312 -17.816406 1.976562 -17.84375 2.28125 -17.84375 C 3.019531 -17.84375 3.390625 -17.535156 3.390625 -16.921875 C 3.390625 -16.859375 3.378906 -16.429688 3.359375 -15.640625 C 3.265625 -12.734375 3.21875 -10.382812 3.21875 -8.59375 L 3.21875 -4.859375 C 3.21875 -2.722656 3.367188 -1.144531 3.671875 -0.125 C 3.378906 0.0078125 3.039062 0.078125 2.65625 0.078125 C 2.28125 0.078125 2.003906 -0.015625 1.828125 -0.203125 C 1.660156 -0.398438 1.578125 -0.722656 1.578125 -1.171875 Z M 1.578125 -1.171875 "/></g></g></g></svg>